# xmcd CD database file
#
# Track frame offsets:
#	150
#	22590
#	42825
#	60980
#	84078
#	98563
#	120193
#	147190
#
# Disc length: 2213 seconds
#
# Revision: 5
# Processed by: cddbd v1.5.2PL0 Copyright (c) Steve Scherf et al.
# Submitted via: CDex 1.70beta3
#
DISCID=4808a308
DTITLE=浜田麻里 - MISTY LADY
DYEAR=1984
DGENRE=J-Metal
TTITLE0=PARADISE
TTITLE1=SWEET LIE
TTITLE2=HEART LINE
TTITLE3=PASSING OVER
TTITLE4=FLY ON WINGS
TTITLE5=MISTY LADY
TTITLE6=MORE FINE FEELING
TTITLE7=TURNING POINT
EXTD=YEAR: 1984
EXTT0=
EXTT1=
EXTT2=
EXTT3=
EXTT4=
EXTT5=
EXTT6=
EXTT7=
PLAYORDER=
